<?xml version="1.0" standalone="no"?>
<!DOCTYPE svg PUBLIC "-//W3C//DTD SVG 20010904//EN"
 "http://www.w3.org/TR/2001/REC-SVG-20010904/DTD/svg10.dtd">
<svg version="1.0" xmlns="http://www.w3.org/2000/svg"
 width="180.000000pt" height="174.000000pt" viewBox="0 0 180.000000 174.000000"
 preserveAspectRatio="xMidYMid meet">

<g transform="translate(0.000000,174.000000) scale(0.100000,-0.100000)"
fill="#000000" stroke="none">
<path d="M795 1705 c-195 -32 -365 -119 -480 -247 -284 -313 -303 -775 -47
-1097 303 -380 862 -419 1230 -86 179 162 285 455 253 699 -31 233 -127 409
-305 558 -109 92 -259 155 -421 177 -93 13 -127 13 -230 -4z m-35 -160 c0 -8
-19 -27 -43 -44 -53 -36 -92 -92 -107 -153 -10 -38 -9 -56 4 -101 30 -105 133
-191 421 -352 239 -134 304 -185 350 -275 19 -38 25 -65 25 -115 0 -69 -12
-103 -58 -164 -31 -41 -137 -111 -169 -111 -26 0 -31 21 -9 40 24 19 48 106
41 142 -11 54 -50 111 -102 150 -40 30 -238 148 -249 148 -9 0 -184 108 -231
142 -81 59 -160 146 -193 212 -26 51 -30 70 -30 141 0 100 28 165 105 240 83
82 245 148 245 100z m320 -34 c30 -5 80 -10 110 -10 96 -2 206 -69 198 -123
-2 -19 -9 -23 -33 -22 -16 1 -40 5 -52 9 -17 5 -23 3 -23 -7 0 -10 23 -24 60
-37 99 -36 126 -99 75 -174 -49 -72 -104 -57 -160 44 -23 41 -37 55 -57 57
-36 4 -42 -21 -18 -75 28 -63 25 -87 -12 -118 -56 -47 -132 -21 -176 60 -18
33 -21 186 -4 240 10 34 0 75 -30 117 -10 14 -18 34 -18 43 0 19 5 19 140 -4z
m-664 -906 c40 -57 80 -94 88 -83 2 2 16 27 31 55 30 57 61 76 80 49 7 -9 18
-50 26 -92 7 -42 18 -78 25 -81 6 -2 41 7 79 22 37 14 78 25 91 25 37 0 32
-53 -10 -120 -31 -49 -33 -57 -20 -71 9 -10 43 -27 77 -40 72 -26 92 -41 84
-63 -5 -13 -23 -16 -90 -16 -113 0 -178 13 -266 55 -141 67 -281 248 -281 364
0 84 24 83 86 -4z"/>
</g>
</svg>
